<svg width="24" height="24" viewBox="0 0 24 24" fill="none" xmlns="http://www.w3.org/2000/svg">
<path fill-rule="evenodd" clip-rule="evenodd" d="M7.5 2C6.94772 2 6.5 2.44772 6.5 3V4H5C3.34315 4 2 5.34315 2 7V10V12V19C2 20.6569 3.34315 22 5 22H19C20.6569 22 22 20.6569 22 19V12V10V7C22 5.34315 20.6569 4 19 4H17.5V3C17.5 2.44772 17.0523 2 16.5 2C15.9477 2 15.5 2.44772 15.5 3V4H8.5V3C8.5 2.44772 8.05228 2 7.5 2ZM6.5 6V7C6.5 7.55228 6.94772 8 7.5 8C8.05228 8 8.5 7.55228 8.5 7V6H15.5V7C15.5 7.55228 15.9477 8 16.5 8C17.0523 8 17.5 7.55228 17.5 7V6H19C19.5523 6 20 6.44771 20 7V10H4V7C4 6.44772 4.44772 6 5 6H6.5ZM4 12V19C4 19.5523 4.44772 20 5 20H19C19.5523 20 20 19.5523 20 19V12H4Z" fill="black"/>
</svg>
