<svg width="24" height="24" viewBox="0 0 24 24" fill="none" xmlns="http://www.w3.org/2000/svg">
<path fill-rule="evenodd" clip-rule="evenodd" d="M20 12C20 16.4183 16.4183 20 12 20C7.58172 20 4 16.4183 4 12C4 7.58172 7.58172 4 12 4C16.4183 4 20 7.58172 20 12ZM22 12C22 17.5228 17.5228 22 12 22C6.47715 22 2 17.5228 2 12C2 6.47715 6.47715 2 12 2C17.5228 2 22 6.47715 22 12ZM9.59232 14.4077L10.7618 10.7618L14.4077 9.59233L13.2382 13.2382L9.59232 14.4077ZM15.6484 7.09395L9.66125 9.01449C9.35392 9.11307 9.11307 9.35392 9.01449 9.66125L7.09395 15.6484C6.84543 16.4231 7.57686 17.1546 8.35161 16.906L14.3387 14.9855C14.6461 14.8869 14.8869 14.6461 14.9855 14.3387L16.906 8.35161C17.1546 7.57686 16.4231 6.84543 15.6484 7.09395Z" fill="black"/>
</svg>
