<svg width="24" height="24" viewBox="0 0 24 24" fill="none" xmlns="http://www.w3.org/2000/svg">
<path fill-rule="evenodd" clip-rule="evenodd" d="M16.5224 2.00021C15.0733 1.9876 13.6775 2.54525 12.6354 3.55272L12.6251 3.56285L11.0683 5.11214C10.6768 5.50172 10.6753 6.13489 11.0649 6.52635C11.4545 6.91782 12.0876 6.91934 12.4791 6.52976L14.0304 4.98588C14.6949 4.34594 15.5832 3.99212 16.505 4.00013C17.4291 4.00817 18.3132 4.37919 18.967 5.03359C19.6208 5.68802 19.9918 6.57352 19.9998 7.49943C20.0078 8.42262 19.6543 9.31194 19.0156 9.97703L16.3067 12.6887C15.9492 13.0466 15.5191 13.3234 15.0455 13.5002C14.572 13.677 14.066 13.7498 13.5619 13.7137C13.0578 13.6776 12.5673 13.5333 12.1237 13.2907C11.6801 13.0481 11.2937 12.7128 10.9908 12.3075C10.6602 11.865 10.0336 11.7744 9.59117 12.105C9.14876 12.4356 9.05811 13.0622 9.3887 13.5046C9.86321 14.1396 10.4687 14.6651 11.164 15.0454C11.8594 15.4257 12.6284 15.6519 13.4189 15.7086C14.2093 15.7652 15.0027 15.6511 15.7452 15.3738C16.4876 15.0966 17.1617 14.6628 17.7219 14.1019L20.437 11.384L20.4492 11.3716C21.4556 10.3285 22.0123 8.93172 21.9997 7.48206C21.9872 6.03241 21.4063 4.64549 20.3819 3.62009C19.3575 2.59465 17.9715 2.01281 16.5224 2.00021ZM10.5811 8.29142C9.79063 8.23475 8.99726 8.34892 8.2548 8.62616C7.5124 8.90337 6.83819 9.33726 6.2781 9.89808L3.56291 12.616L3.55073 12.6284C2.54433 13.6715 1.98762 15.0683 2.00021 16.5179C2.01279 17.9676 2.59367 19.3545 3.61803 20.3799C4.64244 21.4053 6.02841 21.9872 7.47751 21.9998C8.92661 22.0124 10.3225 21.4548 11.3645 20.4473L11.3769 20.4351L12.9247 18.8858C13.315 18.4951 13.3147 17.8619 12.924 17.4716C12.5332 17.0813 11.9001 17.0816 11.5097 17.4723L9.96853 19.0151C9.30418 19.6544 8.41625 20.0079 7.49491 19.9999C6.57084 19.9918 5.6867 19.6208 5.03296 18.9664C4.37919 18.312 4.00817 17.4265 4.00013 16.5006C3.99212 15.5774 4.3456 14.6881 4.98436 14.023L7.69328 11.3113C8.05074 10.9534 8.48086 10.6766 8.95443 10.4998C9.42799 10.323 9.93398 10.2502 10.4381 10.2863C10.9422 10.3224 11.4327 10.4667 11.8763 10.7093C12.3199 10.9519 12.7062 11.2872 13.0091 11.6925C13.3397 12.135 13.9664 12.2256 14.4088 11.895C14.8512 11.5644 14.9418 10.9378 14.6112 10.4954C14.1367 9.86036 13.5313 9.33485 12.8359 8.95456C12.1406 8.57426 11.3716 8.34808 10.5811 8.29142Z" fill="black"/>
</svg>
