<svg width="24" height="24" viewBox="0 0 24 24" fill="none" xmlns="http://www.w3.org/2000/svg">
<path fill-rule="evenodd" clip-rule="evenodd" d="M6.5 7C6.5 5.34315 7.84315 4 9.5 4C11.1569 4 12.5 5.34315 12.5 7C12.5 8.65685 11.1569 10 9.5 10C7.84315 10 6.5 8.65685 6.5 7ZM9.5 2C6.73858 2 4.5 4.23858 4.5 7C4.5 9.76142 6.73858 12 9.5 12C12.2614 12 14.5 9.76142 14.5 7C14.5 4.23858 12.2614 2 9.5 2ZM7 13.5C5.67392 13.5 4.40215 14.0268 3.46447 14.9645C2.52678 15.9021 2 17.1739 2 18.5V21C2 21.5523 2.44772 22 3 22C3.55228 22 4 21.5523 4 21V18.5C4 17.7044 4.31607 16.9413 4.87868 16.3787C5.44129 15.8161 6.20435 15.5 7 15.5H12C12.7956 15.5 13.5587 15.8161 14.1213 16.3787C14.6839 16.9413 15 17.7044 15 18.5V21C15 21.5523 15.4477 22 16 22C16.5523 22 17 21.5523 17 21V18.5C17 17.1739 16.4732 15.9021 15.5355 14.9645C14.5979 14.0268 13.3261 13.5 12 13.5H7ZM16.0316 3.00074C16.1692 2.46589 16.7144 2.1439 17.2493 2.28156C19.3504 2.82235 20.904 4.72848 20.904 7C20.904 9.27152 19.3504 11.1776 17.2493 11.7184C16.7144 11.8561 16.1692 11.5341 16.0316 10.9993C15.8939 10.4644 16.2159 9.91922 16.7507 9.78156C17.9897 9.46268 18.904 8.33686 18.904 7C18.904 5.66314 17.9897 4.53731 16.7507 4.21843C16.2159 4.08077 15.8939 3.53559 16.0316 3.00074ZM19.5008 14.1695C19.0227 13.8929 18.411 14.0563 18.1344 14.5344C17.8579 15.0124 18.0213 15.6241 18.4993 15.9007C19.3986 16.4209 20 17.3908 20 18.5V21C20 21.5522 20.4478 22 21 22C21.5523 22 22 21.5522 22 21V18.5C22 16.648 20.9927 15.0325 19.5008 14.1695Z" fill="black"/>
</svg>
